<svg width="1000" height="1000" viewBox="0 0 668 668" fill="none" xmlns="http://www.w3.org/2000/svg">
<path opacity="0.9" d="M380.626 257.274C304.314 205.597 188.803 41.0419 99.9327 184.368C36.0719 287.24 215.737 393.639 291.903 426.959C389.324 469.591 563.551 453.759 587.599 323.312C597.232 271.088 572.623 250.166 525.689 259.705C470.619 270.901 436.872 295.336 380.626 257.274Z" fill="#0D131B"/>
<path d="M271.248 513.358L262.698 518.862L247.2 500.84L255.75 495.335L271.248 513.358Z" fill="#FF8B7B"/>
<path opacity="0.2" d="M255.764 495.335L247.2 500.84L255.203 510.138L263.753 504.621L255.764 495.335Z" fill="black"/>
<path d="M205.904 542.75L196.071 543.712L185.851 520.332L195.684 519.37L205.904 542.75Z" fill="#FF8B7B"/>
<path opacity="0.2" d="M185.864 520.345L191.128 532.396H201.375L195.684 519.383L185.864 520.345Z" fill="black"/>
<path d="M131.235 227.12C126.292 227.561 126.158 219.171 117.474 223.112C106.439 228.135 110.167 235.924 101.549 235.604C92.9321 235.283 87.1606 242.003 89.0844 247.013C91.0083 252.023 93.9876 256.766 87.8954 258.783C81.8032 260.801 77.6616 262.577 78.5434 267.628C79.4252 272.678 83.7404 274.708 76.4726 277.928C69.2048 281.148 69.9396 295.069 77.0604 295.082C84.1813 295.096 77.3544 302.03 83.7404 309.084C90.1265 316.138 99.8392 317.1 103.887 313.626C107.935 310.152 112.451 307.28 120.066 312.624C127.681 317.968 140.574 319.304 139.986 310.834C139.398 302.364 131.97 296.806 138.971 292.397C145.971 287.988 155.003 285.81 152.17 277.233C150.367 271.889 144.916 267.24 149.311 263.245C156.459 256.752 156.499 242.056 147.735 238.329C142.645 236.178 147.548 225.65 131.235 227.12Z" fill="#263238"/>
<path d="M121.723 293.145C121.482 297.153 120.975 300.72 120.387 304.474C119.799 308.229 118.944 311.889 117.969 315.563C117.018 319.277 115.808 322.92 114.348 326.465C113.627 328.255 112.798 330.032 111.917 331.809C111.476 332.691 110.995 333.559 110.5 334.414C110.273 334.855 109.993 335.283 109.739 335.75L109.351 336.378C109.088 336.796 108.794 337.194 108.47 337.567C107.729 338.404 106.818 339.074 105.798 339.531C104.886 339.944 103.91 340.192 102.912 340.266C101.445 340.35 99.9749 340.151 98.5833 339.678C96.5109 338.966 94.536 337.996 92.7049 336.792C89.4802 334.683 86.4289 332.319 83.58 329.725C78.0876 324.729 72.9661 319.339 68.2561 313.599L72.0503 309.952C74.7223 312.303 77.3943 314.695 80.1866 316.966C82.9788 319.237 85.7043 321.522 88.5499 323.646C91.2592 325.731 94.1169 327.615 97.1003 329.284C98.3617 329.999 99.7084 330.551 101.108 330.927C101.445 331.032 101.8 331.063 102.15 331.021H101.883C101.707 331.107 101.544 331.219 101.402 331.355L101.335 331.422C101.335 331.422 101.335 331.515 101.335 331.422L101.629 330.874C101.816 330.513 102.03 330.166 102.204 329.792C102.578 329.052 102.939 328.304 103.286 327.547C103.954 326.024 104.622 324.474 105.156 322.858C106.279 319.651 107.214 316.338 108.042 312.971C108.871 309.605 109.498 306.171 110.06 302.711C110.621 299.251 111.048 295.71 111.396 292.424L121.723 293.145Z" fill="#FF8B7B"/>
<path d="M129.485 294.401C128.951 297.634 126.265 303.753 124.141 308.295C122.564 311.582 121.282 314.054 121.282 314.054L119.411 313.225L103.927 306.331C105.103 297.981 107.013 288.963 116.218 284.862C121.963 282.324 130.434 288.576 129.485 294.401Z" fill="#00BF69"/>
<path opacity="0.6" d="M129.485 294.401C128.951 297.634 126.265 303.753 124.141 308.295C122.564 311.582 121.282 314.054 121.282 314.054L119.411 313.225L103.927 306.331C105.103 297.981 107.013 288.963 116.218 284.862C121.963 282.324 130.434 288.576 129.485 294.401Z" fill="black"/>
<path opacity="0.3" d="M124.101 308.295C122.525 311.582 121.242 314.054 121.242 314.054L119.372 313.225C119.625 309.925 120.28 304.728 122.044 302.39C123.145 304.188 123.847 306.202 124.101 308.295Z" fill="black"/>
<path d="M72.6382 313.011L73.8673 304.02L63.7805 307.28C63.7805 307.28 65.3837 312.718 68.9776 314.949L72.6382 313.011Z" fill="#FF8B7B"/>
<path d="M69.2983 296.338L62.2576 300.199L63.7806 307.333L73.8674 304.02L69.2983 296.338Z" fill="#FF8B7B"/>
<path d="M259.545 516.164L268.83 509.484C268.989 509.367 269.185 509.312 269.382 509.33C269.578 509.347 269.762 509.435 269.899 509.577L276.218 516.164C276.371 516.334 276.487 516.536 276.558 516.754C276.628 516.973 276.651 517.204 276.626 517.433C276.601 517.661 276.528 517.881 276.411 518.079C276.295 518.277 276.138 518.449 275.951 518.582C272.677 520.853 270.981 521.775 266.893 524.701C264.381 526.504 259.09 530.86 255.617 533.345C252.143 535.83 249.511 532.543 250.727 531.194C256.205 525.155 257.661 521.04 258.529 517.647C258.686 517.05 259.045 516.526 259.545 516.164Z" fill="#263238"/>
<path d="M194.775 540.679H206.799C207.016 540.683 207.225 540.756 207.396 540.889C207.567 541.021 207.69 541.206 207.748 541.414L210.42 550.953C210.485 551.179 210.496 551.416 210.452 551.647C210.408 551.877 210.311 552.094 210.168 552.28C210.025 552.466 209.84 552.616 209.629 552.717C209.417 552.818 209.185 552.869 208.95 552.864C204.702 552.864 202.684 552.864 197.38 552.864H181.161C176.753 552.864 175.817 548.401 177.648 548.001C185.824 546.197 190.54 543.699 193.065 541.32C193.533 540.897 194.145 540.668 194.775 540.679Z" fill="#263238"/>
<path d="M176.419 330.607L137.047 343.058C109.792 289.11 113.68 286.251 113.68 286.251C113.68 286.251 119.973 282.658 126.519 279.665C127.508 279.211 128.51 278.77 129.498 278.329C135.314 276.017 141.288 274.124 147.374 272.664C148.269 272.424 149.164 272.21 150.046 271.996C154.893 270.9 159.8 270.093 164.742 269.578C165.33 277.046 165.918 283.366 166.559 288.857C167.387 296.018 168.282 301.749 169.231 306.706C170.984 314.852 173.388 322.844 176.419 330.607Z" fill="#00BF69"/>
<path opacity="0.6" d="M176.419 330.607L137.047 343.058C109.792 289.11 113.68 286.251 113.68 286.251C113.68 286.251 119.973 282.658 126.519 279.665C127.508 279.211 128.51 278.77 129.498 278.329C135.314 276.017 141.288 274.124 147.374 272.664C148.269 272.424 149.164 272.21 150.046 271.996C154.893 270.9 159.8 270.093 164.742 269.578C165.33 277.046 165.918 283.366 166.559 288.857C167.387 296.018 168.282 301.749 169.231 306.706C170.984 314.852 173.388 322.844 176.419 330.607Z" fill="black"/>
<path opacity="0.3" d="M169.338 306.732C165.557 301.388 161.937 288.95 162.872 284.287L166.613 288.883C167.441 296.044 168.336 301.776 169.338 306.732Z" fill="black"/>
<path d="M138.45 296.325C138.45 296.325 148.376 294.174 151.569 298.489C155.951 294.174 154.402 277.314 152.291 271.302C150.617 271.586 148.974 272.033 147.388 272.638L140.374 283.486L138.45 296.325Z" fill="white"/>
<path d="M138.45 296.325C138.45 296.325 131.77 297.821 131.062 303.285C121.71 296.325 122.364 286.131 124.475 280.119C126.078 279.343 127.763 278.752 129.499 278.356L136.512 286.078L138.45 296.325Z" fill="white"/>
<path d="M140.734 261.308C142.07 266.225 144.101 271.088 147.414 272.691C147.414 272.691 150.5 281.535 138.476 296.325C125.891 287.36 129.525 278.356 129.525 278.356C135.457 274.788 133.787 270.086 131.262 265.971L134.749 260.373C135.096 259.834 135.593 259.407 136.178 259.144C136.763 258.882 137.412 258.795 138.046 258.894C138.679 258.993 139.271 259.274 139.748 259.702C140.225 260.131 140.568 260.689 140.734 261.308Z" fill="#FF8B7B"/>
<path opacity="0.2" d="M140.734 261.308C140.575 260.678 140.233 260.109 139.752 259.672C139.272 259.234 138.673 258.948 138.031 258.848C137.389 258.749 136.731 258.84 136.141 259.111C135.55 259.382 135.052 259.821 134.709 260.373L133.587 262.163C133.68 263.352 133.734 264.328 133.72 264.835C133.613 268.309 138.49 268.149 142.458 266.479C141.75 264.802 141.174 263.074 140.734 261.308Z" fill="black"/>
<path d="M116.566 247.881C120.04 257.354 121.295 261.442 127.655 264.942C137.207 270.219 148.082 263.887 147.521 253.559C147.013 244.274 141.429 230.326 130.834 229.298C128.499 229.061 126.142 229.425 123.987 230.356C121.832 231.286 119.951 232.752 118.521 234.613C117.092 236.475 116.162 238.671 115.82 240.993C115.478 243.315 115.734 245.686 116.566 247.881Z" fill="#FF8B7B"/>
<path d="M141.135 233.64C137.875 230.5 134.455 226.853 127.909 227.561C120.668 228.349 117.809 232.731 117.809 232.731L111.583 246.345C111.583 246.345 115.444 263.873 121.817 255.697C125.491 250.968 125.584 243.82 124.248 238.476C126.752 238.123 129.219 237.551 131.623 236.766C134.562 237.861 137.862 237.861 140.307 235.617C140.841 235.123 141.229 234.735 141.509 234.428L141.736 234.174C142.458 233.252 141.857 233.346 141.135 233.64ZM132.718 236.472C135.001 235.734 137.319 235.114 139.666 234.615C138.793 235.538 137.682 236.2 136.455 236.528C135.228 236.856 133.935 236.836 132.718 236.472Z" fill="#263238"/>
<path d="M117.047 257.514C118.05 259.195 119.679 260.411 121.576 260.894C124.088 261.522 125.277 259.264 124.515 256.886C123.834 254.789 121.71 251.93 119.171 252.33C118.622 252.431 118.108 252.667 117.674 253.019C117.241 253.37 116.903 253.825 116.692 254.341C116.48 254.857 116.402 255.419 116.464 255.973C116.526 256.527 116.726 257.057 117.047 257.514Z" fill="#FF8B7B"/>
<path d="M137.047 343.071C137.047 343.071 135.711 423.752 146.252 452.904C156.405 480.853 186.693 528.896 186.693 528.896L204.248 528.455C204.248 528.455 176.352 467.6 171.796 443.552C164.208 403.646 165.878 334 165.878 334L137.047 343.071Z" fill="#00BF69"/>
<path opacity="0.3" d="M152.812 350.032L157.528 336.672L165.878 334C165.878 334 165.116 365.703 166.946 398.582C159.371 383.993 152.812 357.273 152.812 350.032Z" fill="black"/>
<path d="M184.221 529.804L205.904 529.256L204.649 522.59L180.975 523.712L184.221 529.804Z" fill="#263238"/>
<path d="M145.624 340.466C145.624 340.466 173.012 403.111 190.714 438.769C205.009 467.573 249.498 506.21 249.498 506.21L261.696 497.754C261.696 497.754 228.215 451.982 218.342 432.45C186.746 369.952 194.535 344.194 176.365 330.607L145.624 340.466Z" fill="#00BF69"/>
<path d="M250.22 510.245L264.541 500.051L261.295 493.799L245.557 505.703L250.22 510.245Z" fill="#263238"/>
<path d="M176.352 328.108L179.238 331.074C179.465 331.301 179.238 331.689 178.77 331.836L137.474 344.888C137.127 345.009 136.78 344.888 136.686 344.715L135.217 341.295C135.11 341.067 135.35 340.76 135.738 340.64L175.617 328.015C175.737 327.965 175.868 327.948 175.997 327.964C176.126 327.981 176.248 328.03 176.352 328.108Z" fill="#263238"/>
<path d="M172.344 334.267L173.413 333.933C173.627 333.933 173.76 333.693 173.693 333.572L171.756 329.15C171.699 329.078 171.619 329.027 171.53 329.005C171.44 328.984 171.346 328.992 171.262 329.03L170.193 329.377C169.979 329.444 169.846 329.605 169.913 329.738L171.863 334.147C171.903 334.281 172.117 334.334 172.344 334.267Z" fill="#00BF69"/>
<path d="M140.534 344.327L141.603 343.993C141.816 343.926 141.937 343.766 141.883 343.633L139.933 339.21C139.933 339.077 139.652 339.037 139.438 339.104L138.37 339.438C138.169 339.504 138.036 339.665 138.089 339.798L140.04 344.22C140.1 344.288 140.18 344.336 140.269 344.355C140.358 344.374 140.451 344.364 140.534 344.327Z" fill="#00BF69"/>
<path d="M156.432 339.344L157.501 339.01C157.715 338.943 157.848 338.783 157.782 338.649L155.831 334.227C155.831 334.107 155.564 334.053 155.35 334.12L154.281 334.454C154.068 334.454 153.934 334.681 154.001 334.815L155.938 339.237C156.005 339.344 156.218 339.344 156.432 339.344Z" fill="#00BF69"/>
<path d="M133.186 245.824C133.426 246.612 134.028 247.16 134.522 246.973C135.016 246.786 135.257 246.051 135.016 245.276C134.776 244.501 134.188 243.94 133.68 244.127C133.173 244.314 132.959 245.009 133.186 245.824Z" fill="#263238"/>
<path d="M142.07 243.152C142.311 243.94 142.912 244.488 143.406 244.301C143.901 244.114 144.141 243.392 143.914 242.604C143.687 241.816 143.072 241.268 142.578 241.455C142.084 241.642 141.843 242.364 142.07 243.152Z" fill="#263238"/>
<path d="M142.364 241.562L144.087 240.453C144.087 240.453 143.566 242.217 142.364 241.562Z" fill="#263238"/>
<path d="M139.853 245.196C141.092 246.777 142.539 248.184 144.154 249.378C143.832 249.78 143.426 250.108 142.965 250.339C142.504 250.57 141.998 250.698 141.482 250.714L139.853 245.196Z" fill="#FF5652"/>
<path d="M138.837 255.042C138.874 255.013 138.901 254.973 138.916 254.928C138.93 254.882 138.93 254.834 138.917 254.789C138.899 254.728 138.858 254.677 138.804 254.645C138.75 254.613 138.685 254.602 138.623 254.615C137.653 254.932 136.621 255.013 135.613 254.853C134.605 254.693 133.649 254.295 132.825 253.693C132.801 253.672 132.772 253.656 132.741 253.646C132.711 253.636 132.678 253.632 132.646 253.634C132.614 253.637 132.582 253.646 132.553 253.66C132.525 253.675 132.499 253.695 132.478 253.72C132.457 253.744 132.441 253.773 132.431 253.804C132.421 253.834 132.417 253.867 132.419 253.899C132.422 253.931 132.43 253.963 132.445 253.992C132.46 254.02 132.48 254.046 132.504 254.067C133.391 254.722 134.42 255.156 135.508 255.332C136.595 255.509 137.709 255.423 138.757 255.082L138.837 255.042Z" fill="#263238"/>
<path d="M129.833 243.646C129.895 243.588 129.941 243.514 129.966 243.433C130.164 242.862 130.494 242.346 130.928 241.926C131.362 241.506 131.888 241.194 132.464 241.014C132.532 241.007 132.596 240.986 132.655 240.953C132.713 240.919 132.764 240.873 132.804 240.819C132.843 240.764 132.871 240.702 132.885 240.636C132.899 240.569 132.899 240.501 132.885 240.435C132.871 240.369 132.843 240.307 132.803 240.253C132.763 240.198 132.712 240.152 132.654 240.119C132.595 240.085 132.53 240.064 132.463 240.058C132.396 240.051 132.328 240.058 132.264 240.079C131.521 240.292 130.842 240.683 130.285 241.218C129.729 241.754 129.312 242.418 129.071 243.152C129.047 243.212 129.036 243.275 129.037 243.339C129.039 243.403 129.053 243.466 129.079 243.525C129.105 243.583 129.143 243.636 129.19 243.68C129.236 243.724 129.291 243.758 129.352 243.78C129.437 243.797 129.525 243.794 129.608 243.771C129.692 243.748 129.769 243.705 129.833 243.646Z" fill="#263238"/>
<path d="M144.782 238.115C144.778 238.084 144.778 238.053 144.782 238.022C144.799 237.897 144.768 237.77 144.697 237.667C144.625 237.563 144.517 237.489 144.395 237.461C143.646 237.301 142.871 237.323 142.132 237.522C141.393 237.722 140.712 238.095 140.146 238.61C140.058 238.702 140.009 238.825 140.012 238.953C140.014 239.081 140.067 239.202 140.16 239.291C140.252 239.38 140.375 239.428 140.503 239.425C140.631 239.423 140.752 239.37 140.841 239.278C141.293 238.877 141.835 238.589 142.42 238.438C143.005 238.287 143.618 238.277 144.208 238.409C144.323 238.437 144.444 238.423 144.55 238.369C144.655 238.315 144.738 238.225 144.782 238.115Z" fill="#263238"/>
<path d="M170.781 279.037C172.371 280.226 173.707 281.335 175.096 282.537C176.485 283.74 177.768 284.942 179.104 286.198C181.709 288.71 184.221 291.328 186.599 294.08C189.003 296.848 191.234 299.761 193.279 302.804C193.813 303.553 194.281 304.368 194.775 305.142C195.27 305.917 195.764 306.706 196.205 307.534C196.646 308.362 197.113 309.097 197.541 310.019L198.249 311.502L198.823 312.998C200.055 316.792 200.633 320.767 200.533 324.755C200.452 328.46 200.055 332.152 199.344 335.79C198.65 339.357 197.741 342.844 196.672 346.264C195.595 349.691 194.337 353.058 192.905 356.351L188.069 354.561C188.897 351.355 189.685 347.988 190.273 344.661C190.926 341.367 191.403 338.04 191.703 334.695C192.024 331.454 192.1 328.194 191.93 324.942C191.834 323.4 191.647 321.866 191.369 320.346C191.075 318.944 190.669 317.568 190.153 316.231L189.739 315.309L189.284 314.468C188.924 313.853 188.429 313.132 187.948 312.45C187.467 311.769 187.067 311.114 186.612 310.433C186.158 309.752 185.691 309.097 185.183 308.456C183.232 305.784 181.028 303.352 178.837 300.881C176.646 298.409 174.241 296.084 171.796 293.813C170.594 292.664 169.351 291.542 168.109 290.446C166.866 289.351 165.53 288.255 164.381 287.32L170.781 279.037Z" fill="#FF8B7B"/>
<path d="M189.605 351.368L182.284 356.712L191.636 361.655C191.636 361.655 194.428 356.712 193.533 352.584L189.605 351.368Z" fill="#FF8B7B"/>
<path d="M179.973 365.383L187.628 367.747L191.703 361.682L182.284 356.739L179.973 365.383Z" fill="#FF8B7B"/>
<path d="M164.796 269.605C169.912 269.378 179.973 281.949 179.973 281.949L169.525 296.726C169.525 296.726 157.795 287.374 156.886 280.867C156.125 275.323 158.276 269.872 164.796 269.605Z" fill="#00BF69"/>
<path opacity="0.6" d="M164.796 269.605C169.912 269.378 179.973 281.949 179.973 281.949L169.525 296.726C169.525 296.726 157.795 287.374 156.886 280.867C156.125 275.323 158.276 269.872 164.796 269.605Z" fill="black"/>
<path d="M256.031 520.345H255.871C255.636 520.316 255.414 520.225 255.226 520.082C255.039 519.939 254.892 519.749 254.802 519.53C254.732 519.404 254.695 519.261 254.695 519.116C254.695 518.971 254.732 518.829 254.802 518.702C255.456 517.58 259.13 517.366 259.545 517.366C259.591 517.365 259.637 517.378 259.677 517.401C259.717 517.425 259.75 517.459 259.772 517.5C259.798 517.539 259.812 517.586 259.812 517.633C259.812 517.681 259.798 517.727 259.772 517.767C258.877 518.755 257.287 520.345 256.031 520.345ZM258.97 517.9C257.501 518.007 255.55 518.355 255.216 518.943C255.18 518.996 255.16 519.059 255.16 519.123C255.16 519.187 255.18 519.25 255.216 519.303C255.273 519.449 255.366 519.578 255.488 519.677C255.61 519.775 255.756 519.84 255.911 519.864C256.619 519.945 257.741 519.21 258.97 517.9Z" fill="#00BF69"/>
<path d="M259.291 517.874C258.062 517.874 255.644 517.192 255.189 516.204C255.117 516.028 255.104 515.834 255.152 515.651C255.2 515.468 255.307 515.305 255.457 515.188C255.595 515.064 255.758 514.97 255.936 514.913C256.113 514.855 256.3 514.835 256.485 514.854C257.941 515.015 259.665 517.379 259.732 517.526C259.754 517.562 259.766 517.604 259.766 517.647C259.766 517.689 259.754 517.731 259.732 517.767C259.713 517.802 259.687 517.833 259.654 517.856C259.622 517.879 259.584 517.894 259.545 517.9L259.291 517.874ZM256.325 515.335C256.126 515.334 255.934 515.411 255.791 515.549C255.563 515.749 255.59 515.91 255.63 516.017C255.924 516.658 257.821 517.353 259.064 517.353C258.449 516.591 257.3 515.389 256.392 515.295L256.325 515.335Z" fill="#00BF69"/>
<path d="M189.418 542.67C188.595 542.729 187.774 542.533 187.067 542.109C186.883 541.974 186.733 541.799 186.626 541.598C186.52 541.397 186.46 541.174 186.452 540.946C186.441 540.82 186.464 540.693 186.518 540.578C186.572 540.463 186.655 540.364 186.759 540.292C187.855 539.557 191.956 541.414 192.771 541.801C192.817 541.821 192.855 541.856 192.879 541.899C192.903 541.943 192.912 541.993 192.905 542.042C192.901 542.093 192.88 542.141 192.846 542.179C192.813 542.218 192.768 542.245 192.718 542.256C191.635 542.504 190.529 542.643 189.418 542.67ZM187.508 540.586C187.341 540.577 187.174 540.614 187.027 540.693C186.992 540.719 186.965 540.753 186.949 540.793C186.932 540.833 186.927 540.877 186.933 540.92C186.938 541.077 186.979 541.231 187.054 541.37C187.128 541.509 187.233 541.629 187.361 541.721C188.069 542.256 189.739 542.336 191.89 541.935C190.509 541.259 189.03 540.803 187.508 540.586Z" fill="#00BF69"/>
<path d="M192.665 542.256H192.584C191.248 541.695 188.47 539.49 188.576 538.355C188.576 538.114 188.777 537.793 189.391 537.727C191.796 537.433 192.812 541.735 192.852 541.975C192.861 542.019 192.858 542.064 192.844 542.106C192.83 542.148 192.805 542.186 192.771 542.216C192.74 542.238 192.703 542.252 192.665 542.256ZM189.712 538.181H189.552C189.298 538.181 189.164 538.288 189.138 538.408C189.057 539.063 190.955 540.813 192.344 541.574C191.983 540.519 191.115 538.181 189.712 538.181Z" fill="#00BF69"/>
<path d="M133.48 244.207L135.203 243.099C135.203 243.099 134.682 244.862 133.48 244.207Z" fill="#263238"/>
<path d="M385.61 146.519H191.449C189.374 146.505 187.319 146.916 185.41 147.726C183.5 148.537 181.777 149.73 180.346 151.232C178.915 152.734 177.807 154.514 177.091 156.46C176.374 158.407 176.063 160.48 176.178 162.551L194.388 540.065C194.647 544.365 196.524 548.409 199.642 551.382C202.76 554.356 206.887 556.04 211.195 556.097H405.356C407.43 556.111 409.485 555.7 411.393 554.889C413.302 554.078 415.025 552.885 416.454 551.383C417.884 549.88 418.991 548.101 419.706 546.154C420.421 544.208 420.73 542.135 420.613 540.065L402.417 162.551C402.157 158.25 400.28 154.207 397.163 151.233C394.045 148.26 389.918 146.575 385.61 146.519Z" fill="black"/>
<path d="M392.784 146.519H198.57C196.496 146.505 194.441 146.916 192.532 147.727C190.624 148.537 188.901 149.731 187.471 151.233C186.042 152.735 184.935 154.515 184.22 156.461C183.505 158.408 183.196 160.481 183.313 162.551L201.509 540.065C201.768 544.365 203.645 548.409 206.763 551.382C209.881 554.356 214.008 556.04 218.316 556.097H412.477C414.551 556.111 416.605 555.7 418.514 554.889C420.423 554.078 422.146 552.885 423.575 551.383C425.005 549.88 426.112 548.101 426.827 546.154C427.542 544.208 427.851 542.135 427.734 540.065L409.538 162.551C409.279 158.26 407.409 154.224 404.303 151.251C401.197 148.279 397.083 146.589 392.784 146.519Z" fill="#263238"/>
<path d="M217.768 545.409C216.338 545.372 214.972 544.805 213.937 543.817C212.903 542.829 212.273 541.492 212.17 540.065L194.001 162.551C193.968 161.862 194.076 161.174 194.317 160.527C194.558 159.881 194.927 159.29 195.403 158.791C195.879 158.291 196.451 157.893 197.085 157.621C197.718 157.349 198.401 157.208 199.091 157.207H393.252C394.684 157.237 396.053 157.803 397.089 158.792C398.125 159.781 398.753 161.122 398.849 162.551L417.046 540.065C417.078 540.753 416.971 541.44 416.731 542.085C416.491 542.731 416.122 543.321 415.648 543.82C415.174 544.319 414.603 544.718 413.971 544.991C413.339 545.264 412.658 545.406 411.969 545.409H217.768Z" fill="#00BF69"/>
<path opacity="0.1" d="M217.675 542.737C216.961 542.713 216.28 542.427 215.763 541.935C215.246 541.442 214.928 540.777 214.869 540.065L196.673 162.551C196.66 162.208 196.716 161.866 196.838 161.545C196.959 161.224 197.144 160.93 197.38 160.681C197.616 160.433 197.9 160.233 198.215 160.096C198.529 159.958 198.868 159.884 199.211 159.879H393.372C394.087 159.9 394.769 160.184 395.287 160.678C395.804 161.171 396.122 161.838 396.178 162.551L414.374 540.065C414.386 540.408 414.33 540.75 414.209 541.071C414.087 541.392 413.903 541.685 413.666 541.934C413.43 542.183 413.146 542.382 412.832 542.52C412.517 542.658 412.179 542.732 411.835 542.737H217.675Z" fill="black"/>
<g opacity="0.3">
<path opacity="0.3" d="M276.271 521.04H237.808C236.752 521.028 235.74 520.616 234.976 519.887C234.213 519.158 233.754 518.166 233.693 517.112L230.888 458.716C230.853 458.199 230.925 457.682 231.099 457.195C231.274 456.708 231.547 456.262 231.902 455.886C232.257 455.509 232.686 455.21 233.162 455.008C233.638 454.805 234.151 454.703 234.668 454.708H273.199C274.252 454.716 275.262 455.126 276.024 455.853C276.786 456.58 277.242 457.57 277.3 458.622L280.066 517.032C280.099 517.549 280.025 518.067 279.849 518.554C279.673 519.041 279.398 519.487 279.042 519.863C278.686 520.239 278.256 520.538 277.779 520.74C277.303 520.943 276.789 521.045 276.271 521.04ZM234.615 456.07C234.282 456.069 233.951 456.134 233.644 456.262C233.336 456.391 233.058 456.58 232.825 456.818C232.598 457.064 232.422 457.352 232.307 457.667C232.192 457.981 232.141 458.315 232.157 458.649L234.976 517.032C235.013 517.747 235.321 518.421 235.837 518.917C236.353 519.414 237.039 519.695 237.755 519.704H276.271C276.606 519.706 276.938 519.64 277.246 519.509C277.555 519.378 277.833 519.185 278.063 518.942C278.294 518.699 278.472 518.411 278.586 518.096C278.701 517.781 278.75 517.447 278.73 517.112L275.911 458.716C275.877 458.002 275.572 457.328 275.058 456.831C274.544 456.335 273.86 456.053 273.145 456.044L234.615 456.07Z" fill="#FAFAFA"/>
<path opacity="0.3" d="M272.638 469.631H236.472C236.295 469.631 236.125 469.56 236 469.435C235.874 469.31 235.804 469.14 235.804 468.963C235.804 468.786 235.874 468.616 236 468.49C236.125 468.365 236.295 468.295 236.472 468.295H272.678C272.855 468.295 273.025 468.365 273.15 468.49C273.275 468.616 273.346 468.786 273.346 468.963C273.346 469.14 273.275 469.31 273.15 469.435C273.025 469.56 272.855 469.631 272.678 469.631H272.638Z" fill="#FAFAFA"/>
<path opacity="0.3" d="M273.011 477.179H236.793C236.616 477.176 236.448 477.104 236.324 476.98C236.199 476.855 236.128 476.687 236.125 476.511C236.125 476.334 236.195 476.164 236.32 476.039C236.445 475.913 236.615 475.843 236.793 475.843H273.011C273.189 475.843 273.359 475.913 273.484 476.039C273.609 476.164 273.679 476.334 273.679 476.511C273.676 476.687 273.605 476.855 273.48 476.98C273.355 477.104 273.188 477.176 273.011 477.179Z" fill="#FAFAFA"/>
<path opacity="0.3" d="M273.372 484.728H237.153C236.977 484.724 236.809 484.653 236.685 484.528C236.56 484.404 236.489 484.236 236.485 484.06C236.485 483.882 236.556 483.712 236.681 483.587C236.806 483.462 236.976 483.392 237.153 483.392H273.372C273.549 483.392 273.719 483.462 273.845 483.587C273.97 483.712 274.04 483.882 274.04 484.06C274.04 484.237 273.97 484.407 273.845 484.532C273.719 484.657 273.549 484.728 273.372 484.728Z" fill="#FAFAFA"/>
<path opacity="0.3" d="M273.733 492.276H237.527C237.35 492.276 237.18 492.206 237.055 492.08C236.93 491.955 236.859 491.785 236.859 491.608C236.859 491.431 236.93 491.261 237.055 491.136C237.18 491.01 237.35 490.94 237.527 490.94H273.733C273.91 490.94 274.08 491.01 274.205 491.136C274.331 491.261 274.401 491.431 274.401 491.608C274.401 491.785 274.331 491.955 274.205 492.08C274.08 492.206 273.91 492.276 273.733 492.276Z" fill="#FAFAFA"/>
<path opacity="0.3" d="M274.094 499.824H237.888C237.711 499.824 237.541 499.754 237.416 499.629C237.291 499.503 237.22 499.333 237.22 499.156C237.22 498.979 237.291 498.809 237.416 498.684C237.541 498.559 237.711 498.488 237.888 498.488H274.094C274.271 498.488 274.441 498.559 274.566 498.684C274.691 498.809 274.762 498.979 274.762 499.156C274.762 499.333 274.691 499.503 274.566 499.629C274.441 499.754 274.271 499.824 274.094 499.824Z" fill="#FAFAFA"/>
<path opacity="0.3" d="M267.04 507.373H238.249C238.072 507.373 237.902 507.302 237.776 507.177C237.651 507.052 237.581 506.882 237.581 506.705C237.581 506.528 237.651 506.358 237.776 506.232C237.902 506.107 238.072 506.037 238.249 506.037H267.04C267.217 506.037 267.387 506.107 267.512 506.232C267.637 506.358 267.708 506.528 267.708 506.705C267.704 506.881 267.633 507.049 267.508 507.173C267.384 507.298 267.216 507.369 267.04 507.373Z" fill="#FAFAFA"/>
</g>
<g opacity="0.3">
<path opacity="0.3" d="M300.52 306.786L274.107 311.007C273.088 308.494 271.74 306.126 270.099 303.967C268.518 302.307 266.648 300.949 264.581 299.959L265.57 320.667C280.257 324.532 290.139 328.611 295.216 332.904C298.453 335.602 301.079 338.956 302.922 342.744C304.764 346.533 305.781 350.67 305.904 354.882C306.258 359.81 305.352 364.748 303.272 369.23C301.294 373.412 298.447 377.124 294.922 380.119C291.638 382.932 287.841 385.082 283.74 386.451C278.926 387.899 273.936 388.681 268.91 388.776L269.084 392.423C269.124 393.098 269.025 393.775 268.793 394.41C268.561 395.045 268.201 395.626 267.734 396.116C267.268 396.605 266.706 396.994 266.083 397.258C265.461 397.521 264.79 397.654 264.114 397.647C262.709 397.632 261.362 397.085 260.345 396.115C259.328 395.146 258.717 393.826 258.636 392.423L258.463 388.776C252.599 388.399 246.81 387.259 241.242 385.383C236.976 383.841 233.031 381.527 229.605 378.556C226.478 375.885 223.83 372.7 221.776 369.137C219.717 365.305 218.218 361.197 217.327 356.939L246.065 353.586C247.151 358.297 248.487 361.704 250.073 363.806C252.064 366.248 254.624 368.166 257.527 369.391L256.312 344.114C249.195 342.342 242.227 340.019 235.47 337.166C231.099 334.987 227.342 331.749 224.542 327.748C221.268 323.122 219.457 317.621 219.345 311.956C219.034 308.047 219.578 304.117 220.939 300.44C222.301 296.762 224.446 293.425 227.227 290.66C232.892 284.951 241.576 281.789 253.279 281.175L253.185 279.318C253.145 278.642 253.244 277.966 253.476 277.331C253.708 276.696 254.069 276.115 254.535 275.625C255.001 275.135 255.563 274.747 256.186 274.483C256.809 274.22 257.479 274.087 258.155 274.094C259.56 274.108 260.907 274.656 261.924 275.625C262.941 276.595 263.552 277.915 263.633 279.318L263.726 281.175C274.414 281.843 282.702 284.372 288.589 288.763C294.511 293.229 298.722 299.59 300.52 306.786ZM254.161 299.638C251.779 300.249 249.628 301.545 247.975 303.366C246.85 304.875 246.305 306.738 246.439 308.616C246.509 310.63 247.242 312.565 248.523 314.12C250.306 315.992 252.564 317.345 255.056 318.035L254.161 299.638ZM268.015 370.072C272.023 369.181 274.918 367.685 276.699 365.583C277.554 364.638 278.214 363.532 278.64 362.331C279.067 361.129 279.252 359.855 279.184 358.582C279.048 356.263 278.102 354.064 276.512 352.37C274.829 350.486 271.622 348.723 266.919 347.106L268.015 370.072Z" fill="#FAFAFA"/>
</g>
<path opacity="0.2" d="M370.339 195.804H238.075L250.968 463.151C251.597 474.104 256.361 484.409 264.297 491.983C272.234 499.557 282.75 503.835 293.72 503.953H425.984L413.105 236.606C412.481 225.649 407.717 215.338 399.777 207.762C391.836 200.187 381.313 195.912 370.339 195.804Z" fill="black"/>
<path d="M402.737 195.804H238.115C249.086 195.918 259.604 200.196 267.541 207.77C275.478 215.345 280.241 225.652 280.867 236.606L291.382 454.24C292.011 465.192 296.775 475.497 304.711 483.072C312.648 490.646 323.164 494.924 334.134 495.041H417.139C422.424 495.096 427.664 494.064 432.532 492.007C437.401 489.951 441.794 486.915 445.44 483.088C449.085 479.261 451.904 474.725 453.721 469.762C455.538 464.8 456.315 459.516 456.003 454.24L445.502 236.606C444.879 225.649 440.115 215.338 432.175 207.762C424.234 200.187 413.711 195.912 402.737 195.804Z" fill="#FAFAFA"/>
<path d="M372.985 454.24C373.298 459.513 372.524 464.794 370.71 469.755C368.895 474.716 366.08 479.251 362.439 483.077C358.798 486.904 354.408 489.941 349.543 491.999C344.679 494.057 339.442 495.093 334.16 495.041H498.769C504.052 495.093 509.288 494.057 514.154 491.999C519.019 489.941 523.41 486.905 527.052 483.078C530.694 479.252 533.511 474.717 535.326 469.756C537.142 464.795 537.918 459.514 537.607 454.24H372.985Z" fill="#E6E6E6"/>
<path d="M425.917 330.887H309.578C308.762 330.878 307.981 330.56 307.39 329.997C306.8 329.435 306.446 328.669 306.398 327.854C306.376 327.463 306.435 327.071 306.57 326.703C306.706 326.335 306.915 325.998 307.185 325.714C307.456 325.43 307.781 325.204 308.142 325.051C308.503 324.897 308.892 324.819 309.284 324.822H425.623C426.448 324.817 427.243 325.129 427.845 325.693C428.446 326.257 428.808 327.031 428.856 327.854C428.878 328.251 428.818 328.647 428.68 329.019C428.541 329.391 428.327 329.73 428.051 330.015C427.775 330.3 427.443 330.524 427.075 330.674C426.708 330.825 426.314 330.897 425.917 330.887Z" fill="#00BF69"/>
<path d="M426.825 349.818H310.486C309.671 349.809 308.889 349.491 308.299 348.929C307.709 348.366 307.354 347.6 307.307 346.786C307.285 346.394 307.343 346.002 307.479 345.634C307.614 345.266 307.823 344.929 308.094 344.645C308.364 344.361 308.69 344.135 309.051 343.982C309.412 343.828 309.8 343.75 310.192 343.753H426.545C427.358 343.765 428.136 344.084 428.724 344.647C429.311 345.21 429.664 345.974 429.711 346.786C429.733 347.177 429.674 347.569 429.539 347.937C429.404 348.305 429.194 348.642 428.924 348.926C428.654 349.21 428.328 349.436 427.967 349.589C427.606 349.743 427.218 349.821 426.825 349.818Z" fill="#00BF69"/>
<path d="M427.747 368.736H311.395C310.579 368.727 309.797 368.409 309.207 367.846C308.617 367.283 308.263 366.518 308.215 365.703C308.193 365.312 308.252 364.92 308.387 364.552C308.523 364.184 308.732 363.847 309.002 363.563C309.273 363.279 309.598 363.053 309.959 362.899C310.32 362.746 310.709 362.668 311.101 362.671H427.52C428.336 362.679 429.117 362.997 429.708 363.56C430.298 364.123 430.652 364.889 430.7 365.703C430.722 366.101 430.662 366.498 430.522 366.871C430.383 367.244 430.168 367.583 429.89 367.869C429.612 368.154 429.279 368.378 428.91 368.527C428.541 368.677 428.145 368.748 427.747 368.736Z" fill="#00BF69"/>
<path d="M428.656 387.694H312.317C311.502 387.682 310.722 387.363 310.133 386.801C309.543 386.238 309.188 385.474 309.137 384.661C309.115 384.27 309.174 383.878 309.309 383.509C309.445 383.141 309.654 382.805 309.924 382.521C310.195 382.237 310.52 382.011 310.881 381.857C311.242 381.704 311.631 381.626 312.023 381.628H428.362C429.177 381.637 429.959 381.955 430.549 382.518C431.14 383.081 431.494 383.847 431.542 384.661C431.563 385.053 431.505 385.445 431.37 385.813C431.234 386.181 431.025 386.517 430.755 386.802C430.484 387.086 430.158 387.311 429.798 387.465C429.437 387.618 429.048 387.696 428.656 387.694Z" fill="#00BF69"/>
<path d="M383.312 406.625H313.225C312.41 406.616 311.628 406.298 311.038 405.735C310.448 405.172 310.093 404.406 310.046 403.592C310.024 403.201 310.082 402.809 310.218 402.441C310.353 402.072 310.562 401.736 310.833 401.452C311.103 401.168 311.429 400.942 311.79 400.789C312.151 400.635 312.539 400.557 312.931 400.56H383.018C383.834 400.568 384.616 400.886 385.206 401.449C385.796 402.012 386.15 402.778 386.198 403.592C386.22 403.984 386.161 404.376 386.026 404.744C385.89 405.112 385.681 405.448 385.411 405.733C385.14 406.017 384.815 406.242 384.454 406.396C384.093 406.549 383.704 406.627 383.312 406.625Z" fill="#00BF69"/>
<path d="M391.395 291.646C405.162 277.543 404.325 254.399 389.525 239.952C374.726 225.505 351.568 225.225 337.801 239.328C324.035 253.43 324.872 276.574 339.671 291.022C354.471 305.469 377.628 305.748 391.395 291.646Z" fill="#00BF69"/>
<path d="M394.761 265.463C395.014 270.428 393.998 275.375 391.809 279.839C389.436 284.624 385.762 288.645 381.208 291.438C376.654 294.231 371.406 295.684 366.064 295.63C360.538 295.588 355.118 294.111 350.335 291.342C345.552 288.574 341.571 284.61 338.783 279.839C336.181 275.474 334.69 270.538 334.441 265.463C334.21 261.564 334.783 257.66 336.125 253.992C337.467 250.324 339.549 246.971 342.242 244.142C344.935 241.313 348.18 239.067 351.777 237.546C355.374 236.024 359.246 235.258 363.152 235.296C371.258 235.397 379.026 238.565 384.891 244.162C390.755 249.759 394.282 257.37 394.761 265.463Z" fill="white"/>
<path opacity="0.4" d="M391.809 279.839C389.436 284.624 385.762 288.645 381.208 291.438C376.654 294.231 371.406 295.684 366.064 295.63C360.538 295.588 355.118 294.111 350.335 291.342C345.552 288.574 341.571 284.61 338.783 279.839C346.472 274.563 355.591 271.765 364.915 271.823C374.466 271.84 383.807 274.625 391.809 279.839Z" fill="#00BF69"/>
<path opacity="0.4" d="M373.938 264.739C378.999 259.554 378.694 251.047 373.255 245.738C367.817 240.429 359.305 240.329 354.244 245.514C349.182 250.698 349.488 259.205 354.926 264.514C360.364 269.823 368.876 269.923 373.938 264.739Z" fill="#00BF69"/>
<path d="M476.632 546.077H466.825L465.837 523.338H475.656L476.632 546.077Z" fill="#B55B52"/>
<path opacity="0.2" d="M465.85 523.351L466.344 535.068H476.164L475.656 523.351H465.85Z" fill="black"/>
<path d="M560.172 519.437L550.846 522.483L539.103 502.403L548.442 499.357L560.172 519.437Z" fill="#B55B52"/>
<path opacity="0.2" d="M548.442 499.357L539.103 502.403L545.168 512.757L554.494 509.711L548.442 499.357Z" fill="black"/>
<path d="M509.818 217.661C511.034 219.144 512.062 220.467 513.118 221.923C514.173 223.379 515.175 224.769 516.177 226.212C518.154 229.111 520.051 232.077 521.828 235.136C525.526 241.343 528.541 247.932 530.82 254.789L531.047 255.457L531.154 255.804L531.301 256.352L531.568 257.447L531.715 258.449C531.873 259.649 531.922 260.861 531.862 262.07C531.737 264.108 531.442 266.133 530.98 268.122C530.134 271.686 529.013 275.179 527.627 278.569C524.985 285.069 521.784 291.327 518.061 297.273L511.381 294.08C513.385 287.814 515.389 281.402 516.858 275.163C517.624 272.155 518.204 269.103 518.595 266.024C518.76 264.695 518.809 263.354 518.742 262.016C518.722 261.54 518.66 261.066 518.555 260.6L518.488 260.36C518.463 260.317 518.441 260.272 518.422 260.226L518.315 259.972L518.101 259.451L517.206 257.354L516.204 255.27C515.536 253.934 514.801 252.491 514.066 251.101C512.543 248.349 510.9 245.61 509.19 242.885C507.48 240.159 505.663 237.541 503.846 234.869C502.029 232.197 500.038 229.525 498.235 227.107L509.818 217.661Z" fill="#B55B52"/>
<path d="M511.996 292.424L508.161 300.907H519.13C519.13 300.907 520.88 294.468 516.899 291.863L511.996 292.424Z" fill="#B55B52"/>
<path d="M509.444 310.446L519.624 308.482L519.13 300.907H508.161L509.444 310.446Z" fill="#B55B52"/>
<path d="M461.214 174.602C461.214 175.403 460.8 176.045 460.279 176.045C459.758 176.045 459.344 175.403 459.344 174.602C459.344 173.8 459.771 173.172 460.279 173.172C460.787 173.172 461.214 173.814 461.214 174.602Z" fill="#263238"/>
<path d="M460.92 176.045C459.978 178.462 458.706 180.737 457.139 182.805C457.68 183.192 458.297 183.457 458.95 183.582C459.603 183.706 460.275 183.687 460.92 183.526V176.045Z" fill="#A02724"/>
<path d="M464.02 170.22C463.922 170.221 463.828 170.188 463.753 170.126C463.287 169.776 462.747 169.539 462.174 169.435C461.601 169.331 461.011 169.361 460.453 169.525C460.341 169.555 460.222 169.543 460.118 169.491C460.015 169.439 459.935 169.35 459.893 169.242C459.852 169.134 459.852 169.014 459.893 168.906C459.935 168.798 460.015 168.709 460.119 168.657C460.822 168.433 461.57 168.382 462.297 168.508C463.025 168.633 463.712 168.932 464.3 169.378C464.399 169.453 464.465 169.562 464.485 169.684C464.505 169.806 464.477 169.931 464.407 170.033C464.361 170.091 464.302 170.138 464.235 170.171C464.168 170.203 464.094 170.22 464.02 170.22Z" fill="#263238"/>
<path d="M486.772 183.727C485.356 190.914 483.953 204.074 488.976 208.857C488.976 208.857 487.012 216.138 473.679 216.138C458.983 216.138 466.665 208.857 466.665 208.857C474.681 206.946 474.467 201.015 473.064 195.43L486.772 183.727Z" fill="#B55B52"/>
<path d="M490.9 211.355C491.955 209.057 493.118 206.412 490.713 205.584C488.041 204.675 473.666 203.753 468.682 205.463C468.027 205.645 467.414 205.955 466.88 206.376C466.345 206.796 465.9 207.319 465.569 207.913C465.238 208.507 465.029 209.161 464.953 209.837C464.878 210.513 464.937 211.197 465.128 211.85L490.9 211.355Z" fill="#263238"/>
<path d="M548.829 524.821C548.107 525.516 547.293 526.077 546.678 525.983C546.484 525.944 546.307 525.846 546.17 525.703C546.034 525.559 545.945 525.377 545.916 525.182C545.876 525.03 545.869 524.871 545.897 524.716C545.924 524.561 545.986 524.415 546.077 524.286C546.878 523.044 550.085 522.51 550.258 522.496C550.301 522.49 550.345 522.495 550.385 522.512C550.425 522.528 550.46 522.555 550.486 522.59C550.511 522.627 550.524 522.671 550.524 522.717C550.524 522.762 550.511 522.806 550.486 522.844C550.004 523.559 549.449 524.221 548.829 524.821ZM546.651 524.313C546.581 524.378 546.519 524.449 546.464 524.527C546.41 524.604 546.374 524.691 546.358 524.784C546.342 524.876 546.346 524.971 546.371 525.061C546.478 525.476 546.678 525.516 546.745 525.516C547.426 525.622 548.882 524.18 549.777 523.057C548.656 523.24 547.588 523.669 546.651 524.313Z" fill="#00BF69"/>
<path d="M550.432 522.884L550.325 522.95C549.217 523.244 546.317 523.057 545.703 522.122C545.611 521.973 545.572 521.797 545.591 521.623C545.611 521.449 545.687 521.286 545.81 521.16C545.925 521.025 546.065 520.914 546.224 520.834C546.382 520.753 546.555 520.705 546.732 520.693C548.201 520.586 550.325 522.47 550.419 522.55C550.451 522.577 550.475 522.613 550.487 522.653C550.498 522.694 550.498 522.737 550.486 522.777C550.482 522.818 550.463 522.856 550.432 522.884ZM546.251 521.387L546.17 521.468C545.983 521.695 546.064 521.815 546.09 521.868C546.451 522.416 548.482 522.723 549.738 522.576C548.907 521.826 547.877 521.334 546.772 521.16C546.585 521.175 546.41 521.255 546.277 521.387H546.251Z" fill="#00BF69"/>
<path d="M462.871 546.571C461.615 546.571 460.399 546.397 459.998 545.836C459.89 545.689 459.831 545.511 459.831 545.328C459.831 545.146 459.89 544.968 459.998 544.821C460.077 544.684 460.183 544.566 460.309 544.471C460.436 544.377 460.58 544.31 460.733 544.273C462.363 543.832 465.797 545.783 465.944 545.876C465.986 545.899 466.019 545.935 466.038 545.978C466.058 546.022 466.062 546.07 466.05 546.117C466.044 546.162 466.023 546.204 465.992 546.237C465.961 546.27 465.921 546.294 465.877 546.304C464.884 546.477 463.878 546.566 462.871 546.571ZM461.321 544.674C461.17 544.653 461.017 544.653 460.867 544.674C460.773 544.692 460.684 544.73 460.605 544.786C460.527 544.841 460.461 544.912 460.412 544.994C460.252 545.288 460.306 545.435 460.412 545.516C460.867 546.143 463.352 546.157 465.169 545.903C463.978 545.247 462.671 544.829 461.321 544.674Z" fill="#00BF69"/>
<path d="M465.837 546.304H465.743C464.567 545.769 462.216 543.632 462.39 542.536C462.39 542.269 462.617 541.948 463.258 541.882C463.496 541.855 463.737 541.877 463.967 541.945C464.197 542.014 464.41 542.129 464.594 542.282C465.837 543.311 466.104 545.956 466.117 546.063C466.116 546.105 466.106 546.145 466.088 546.182C466.069 546.219 466.043 546.251 466.01 546.277C465.985 546.293 465.956 546.303 465.926 546.308C465.896 546.312 465.866 546.311 465.837 546.304ZM463.445 542.296H463.312C462.884 542.296 462.857 542.496 462.857 542.55C462.75 543.218 464.34 544.888 465.529 545.609C465.414 544.487 464.946 543.43 464.193 542.59C463.98 542.42 463.717 542.326 463.445 542.322V542.296Z" fill="#00BF69"/>
<path d="M550.031 521.401L558.047 513.772C558.187 513.635 558.37 513.55 558.565 513.533C558.76 513.516 558.955 513.567 559.116 513.679L566.544 518.649C566.724 518.77 566.874 518.93 566.982 519.118C567.091 519.306 567.155 519.516 567.171 519.732C567.186 519.948 567.152 520.165 567.071 520.366C566.991 520.567 566.865 520.748 566.705 520.893C563.886 523.565 562.376 524.647 558.876 527.987C556.711 530.058 550.272 537.072 547.292 539.931C544.313 542.79 541.107 540.198 542.069 538.769C546.397 532.343 549.096 526.184 549.337 522.937C549.38 522.359 549.626 521.815 550.031 521.401Z" fill="#263238"/>
<path d="M466.879 544.941H477.567C477.761 544.94 477.949 545.006 478.1 545.128C478.251 545.249 478.355 545.419 478.395 545.609L480.332 554.333C480.381 554.543 480.381 554.761 480.333 554.971C480.285 555.18 480.19 555.376 480.055 555.544C479.919 555.711 479.748 555.846 479.553 555.937C479.358 556.028 479.145 556.073 478.929 556.07C475.055 556.07 469.471 555.789 464.607 555.789C458.929 555.789 454.026 556.097 447.36 556.097C443.352 556.097 442.216 552.022 443.899 551.648C451.568 549.978 457.847 549.791 464.474 545.703C465.189 545.229 466.022 544.966 466.879 544.941Z" fill="#263238"/>
<path d="M452.904 231.128C449.003 236.873 444.982 242.244 440.653 247.547C436.308 252.916 431.665 258.037 426.745 262.885L424.848 264.728L424.367 265.183L424.02 265.503L423.512 265.864C422.883 266.371 422.207 266.819 421.495 267.2C419.24 268.39 416.758 269.087 414.214 269.244C410.331 269.474 406.435 269.15 402.644 268.282C395.773 266.767 389.112 264.425 382.804 261.308L385.262 254.361C391.518 255.612 397.845 256.477 404.207 256.953C407.003 257.174 409.815 257.057 412.584 256.606C413.379 256.487 414.137 256.19 414.801 255.737C414.868 255.737 414.801 255.657 414.801 255.657L414.908 255.55L415.296 255.109L416.886 253.372C421.054 248.616 425.102 243.539 429.03 238.356C432.958 233.172 436.899 227.855 440.653 222.671L452.904 231.128Z" fill="#B55B52"/>
<path d="M506.558 211.088C515.75 213.199 526.304 238.276 526.304 238.276L507.827 250.941C503.238 244.347 499.168 237.405 495.656 230.179C490.178 218.703 497.152 208.924 506.558 211.088Z" fill="#00BF69"/>
<path opacity="0.3" d="M499.958 227.12L508.695 250.38L507.827 250.981C507.827 250.981 504.046 245.637 499.958 238.516V227.12Z" fill="black"/>
<path d="M451.568 211.582C451.568 211.582 441.121 223.379 450.994 296.418H503.485C503.846 288.402 498.782 249.044 506.558 211.075C500.751 209.958 494.878 209.217 488.976 208.857C481.545 208.429 474.096 208.429 466.665 208.857C461.569 209.37 456.522 210.282 451.568 211.582Z" fill="#00BF69"/>
<path opacity="0.3" d="M457.393 232.704C456.027 240.993 452.445 248.758 447.026 255.176C446.812 250.473 446.732 246.252 446.745 242.471L457.393 232.704Z" fill="black"/>
<path d="M461.922 219.545C463.258 228.83 444.902 252.571 444.902 252.571L426.505 239.906C426.505 239.906 431.608 226.826 440.199 218.249C450.018 208.416 460.519 209.431 461.922 219.545Z" fill="#00BF69"/>
<path d="M386.532 255.176L379.33 247.734L371.648 257.634C371.648 257.634 377.5 263.285 384.461 261.642L386.532 255.176Z" fill="#B55B52"/>
<path d="M369.444 243.593L366.144 253.987L371.649 257.594L379.331 247.694L369.444 243.593Z" fill="#B55B52"/>
<path d="M487.64 172.932C487.039 182.645 487.186 188.376 482.296 193.359C474.908 200.868 462.911 196.419 460.6 186.679C458.502 177.942 459.838 163.513 469.35 159.652C471.446 158.791 473.726 158.48 475.975 158.749C478.224 159.018 480.367 159.858 482.2 161.189C484.033 162.52 485.495 164.298 486.447 166.353C487.4 168.408 487.81 170.673 487.64 172.932Z" fill="#B55B52"/>
<path d="M496.097 152.638C499.09 155.39 497.82 158.463 496.257 159.037C501.107 160.039 501.815 163.9 499.263 172.05C496.832 179.852 490.94 190.313 483.579 190.954C472.516 191.916 469.283 180.387 469.203 168.951C462.951 169.338 465.649 163.794 457.967 165.076C451.287 166.185 453.799 160.975 448.121 158.703C441.535 156.031 442.857 145.945 449.003 148.844C449.003 148.844 446.157 150.714 449.47 152.478C452.784 154.241 452.463 150.166 459.023 149.672C465.583 149.178 466.344 154.789 474.013 151.409C483.632 147.16 489.951 146.96 496.097 152.638Z" fill="#263238"/>
<path d="M492.41 158.984C492.846 158.284 493.496 157.744 494.264 157.443C495.032 157.142 495.876 157.097 496.672 157.314C499.678 157.955 499.918 159.278 501.802 159.104C503.686 158.931 503.004 160.935 503.004 160.935C503.004 160.935 502.497 159.425 500.225 160.267C497.954 161.108 496.471 159.051 495.496 159.973C494.521 160.894 492.41 158.984 492.41 158.984Z" fill="#263238"/>
<path d="M474.44 175.577C474.013 177.959 472.805 180.131 471.007 181.749C468.629 183.86 466.571 182.164 466.491 179.278C466.491 176.673 467.6 172.424 470.339 171.409C473.078 170.393 474.935 172.691 474.44 175.577Z" fill="#B55B52"/>
<path d="M469.604 296.418C469.604 296.418 480.746 371.408 486.865 399.464C493.545 430.192 540.105 511.955 540.105 511.955L557.205 506.398C557.205 506.398 520.131 432.73 516.311 402.256C512.156 369.19 503.485 296.365 503.485 296.365L469.604 296.418Z" fill="#263238"/>
<path d="M535.322 506.611C535.255 506.611 539.236 512.596 539.236 512.596L558.448 506.344L556.19 500.599L535.322 506.611Z" fill="#00BF69"/>
<path opacity="0.3" d="M476.645 323.138C489.524 325.663 488.161 373.693 486.612 398.395C482.897 380.934 477.46 347.333 473.746 323.486C474.644 323.043 475.667 322.92 476.645 323.138Z" fill="black"/>
<path d="M450.994 296.418C450.994 296.418 449.658 369.805 450.7 399.731C451.809 430.86 462.724 532.797 462.724 532.797H479.357C479.357 532.797 479.958 432.677 480.693 402.109C481.495 368.709 485.516 296.418 485.516 296.418H450.994Z" fill="#263238"/>
<path d="M459.491 526.17C459.41 526.17 460.426 533.077 460.426 533.077H480.653L481.201 526.918L459.491 526.17Z" fill="#00BF69"/>
</svg>
